<?xml version="1.0" encoding="utf-8" ?><svg xmlns="http://www.w3.org/2000/svg" xmlns:xlink="http://www.w3.org/1999/xlink" width="1024" height="1024" viewBox="0 0 1024 1024"><path fill="#FCDA06" d="M377.493 370.895C412.344 359.634 449.132 358.577 485.345 359.549C493.788 360.78 504.168 360.564 513.428 361.825C543.195 365.608 573.555 372.313 600.05 386.817C603.443 385.912 607.657 381.759 610.376 379.329C611.586 378.291 612.71 377.531 614.007 376.622C622.749 370.113 632.069 363.902 643.021 365.457C656.755 370.091 650.969 388.35 677.121 381.162C683.225 378.357 701.13 368.349 705.454 377.285C705.423 383.051 699.587 381.216 696.223 379.889C692.849 381.203 689.41 381.693 689.385 385.893C689.769 386.706 690.419 387.948 690.663 388.763C694.872 389.599 698.483 388.921 702.503 387.773C705.691 386.752 711.97 384.06 714.682 385.419C715.527 387.259 715.379 386.314 715.078 388.367C713.016 391.512 710.183 391.961 709.373 394.196C710.857 396.375 714.623 396.991 717.161 397.422C726.635 394.63 725.053 397.593 728.788 405.33C733.64 415.378 745.559 414.929 754.737 416.063C771.871 418.181 782.053 431.498 784.9 447.731C785 448.238 784.998 448.464 785.019 448.924C785.204 450.466 785.026 450.719 784.641 452.208C782.616 453.465 773.71 449.249 769.927 448.78C772.109 453.202 773.789 454.76 775.931 458.43C786.615 472.045 797.657 491.055 795.947 509.237C795.644 512.459 794.19 518.821 794.389 521.638C794.647 525.276 795.711 527.543 795.565 531.841C795.387 537.293 794.872 545.329 793.302 550.586C792.457 553.72 791.477 555.894 788.439 557.474C781.381 561.145 769.282 561.574 761.237 562.177L759.853 568.1C766.52 569.316 792.573 573.175 797.012 577.022C798.438 582.561 781.087 585.278 777.252 585.988C752.133 590.641 726.79 592.999 701.34 594.853C662.379 597.827 623.283 598.655 584.231 597.332C566.846 596.682 548.977 594.517 531.632 593.728C530.373 593.487 524.991 593.47 523.403 593.438L519.881 590.688C519.985 588.691 519.965 586.764 519.961 584.771C518.227 584.907 516.444 585.079 514.711 585.137C512.64 582.715 507.647 578.268 505.597 575.778C499.921 568.883 479.921 548.068 477.743 541.015C477.418 541.014 477.093 541.014 476.768 541.014C452.654 510.965 430.942 479.064 411.833 445.608C409.372 441.366 402.082 429.06 400.967 424.601C399.433 423.413 396.829 417.418 395.936 415.425C393.695 411.045 387.329 399.061 386.372 394.587C384.977 391.946 382.976 386.962 381.704 384.071C380.74 381.395 377.55 373.164 377.493 370.895Z"/><path fill="#1D1D1C" d="M477.743 541.015C474.501 517.028 476.131 488.639 490.986 468.509C495.489 462.415 503.479 456.08 511.237 455.608C539.215 453.908 551.189 490.683 552.832 512.75C554.708 537.931 549.028 577.227 519.961 584.771C518.227 584.907 516.444 585.079 514.711 585.137C512.64 582.715 507.647 578.268 505.597 575.778C499.921 568.883 479.921 548.068 477.743 541.015Z"/><path fill="#1D1D1C" d="M484.859 534.313C484.015 532.496 483.983 526.684 483.888 524.453C483.371 512.221 484.902 500.912 490.093 489.722C495.517 478.029 507.741 466.355 521.376 473.634C531.538 479.06 536.176 490.497 539.641 500.909C540.474 504.945 541.281 508.53 541.641 512.657C543.381 530.304 540.873 547.037 530.357 561.54C527.063 565.227 525.514 566.249 521.122 568.564C514.843 571.246 510.315 570.774 504.228 568.391C501.714 566.823 500.323 565.611 498.089 563.73C492.367 557.797 490.703 553.952 487.572 546.236C486.321 542.484 485.224 538.25 484.859 534.313Z"/><path fill="#FCDA06" d="M484.859 534.313C484.015 532.496 483.983 526.684 483.888 524.453C483.371 512.221 484.902 500.912 490.093 489.722C495.517 478.029 507.741 466.355 521.376 473.634C531.538 479.06 536.176 490.497 539.641 500.909C538.71 502.803 537.741 503.262 537.147 504.36C536.099 502.298 536.635 502.552 534.961 501.806C529.425 502.29 524.302 508.5 520.82 507.4C517.91 503.596 525.736 488.936 527.608 484.683C524.913 480.88 523.31 479.891 519.193 477.772C515.192 486.149 513.721 495.107 510.779 504.005C508.452 494.127 507.692 488.147 506.664 478.065C502.546 480.694 500.159 482.968 497.073 486.707L497.231 487.389C498.584 493.104 504.142 506.263 502.469 510.799C499.95 512.146 491.473 506.196 488.391 504.889C487.367 509.371 487.037 511.618 486.688 516.212C490.972 518.624 497.096 521.031 500.705 523.367C499.236 525.283 490.626 534.061 488.776 535.421C488.074 538.912 488.805 541.428 490.689 544.538C495.924 541.521 499.953 537.759 505.219 535.22C504.685 541.931 501.963 554.428 499.919 561.066C502.241 563.662 503.553 564.162 506.862 565.304C508.844 556.902 510.883 548.513 512.979 540.139C514.905 548.022 517.954 556.176 520.005 564.347C523.219 562.598 525.971 561.2 528.173 558.173C526.691 553.086 519.522 537.804 520.796 534.209C523.391 533.501 531.961 540.521 536.099 542.486L536.693 542.761C537.96 539.197 538.292 536.217 538.531 532.503C534.457 528.854 529.313 526.867 524.025 521.842C529.121 518.308 533.09 516.885 538.63 514.204L541.641 512.657C543.381 530.304 540.873 547.037 530.357 561.54C527.063 565.227 525.514 566.249 521.122 568.564C514.843 571.246 510.315 570.774 504.228 568.391C501.714 566.823 500.323 565.611 498.089 563.73C492.367 557.797 490.703 553.952 487.572 546.236C486.321 542.484 485.224 538.25 484.859 534.313Z"/><path fill="#FBE238" d="M537.147 504.36C537.741 503.262 538.71 502.803 539.641 500.909C540.474 504.945 541.281 508.53 541.641 512.657L538.63 514.204C538.255 510.512 537.856 508.009 537.147 504.36Z"/><path fill="#1D1D1C" d="M614.007 376.622C622.749 370.113 632.069 363.902 643.021 365.457C656.755 370.091 650.969 388.35 677.121 381.162C683.225 378.357 701.13 368.349 705.454 377.285C705.423 383.051 699.587 381.216 696.223 379.889C692.849 381.203 689.41 381.693 689.385 385.893C689.769 386.706 690.419 387.948 690.663 388.763C694.872 389.599 698.483 388.921 702.503 387.773C705.691 386.752 711.97 384.06 714.682 385.419C715.527 387.259 715.379 386.314 715.078 388.367C713.016 391.512 710.183 391.961 709.373 394.196C710.857 396.375 714.623 396.991 717.161 397.422C726.635 394.63 725.053 397.593 728.788 405.33C733.64 415.378 745.559 414.929 754.737 416.063C771.871 418.181 782.053 431.498 784.9 447.731C785 448.238 784.998 448.464 785.019 448.924C785.204 450.466 785.026 450.719 784.641 452.208C782.616 453.465 773.71 449.249 769.927 448.78C772.109 453.202 773.789 454.76 775.931 458.43C772.064 455.121 767.759 450.328 763.55 447.616C741.381 433.531 712.708 432.704 687.297 430.186C673.423 428.991 664.154 430.518 652.686 421.125C640.068 410.79 626.016 401.711 611.871 393.62C608.086 391.455 603.542 389.325 600.05 386.817C603.443 385.912 607.657 381.759 610.376 379.329C611.586 378.291 612.71 377.531 614.007 376.622Z"/><path fill="#E51912" d="M614.007 376.622C622.749 370.113 632.069 363.902 643.021 365.457C656.755 370.091 650.969 388.35 677.121 381.162C683.225 378.357 701.13 368.349 705.454 377.285C705.423 383.051 699.587 381.216 696.223 379.889C692.849 381.203 689.41 381.693 689.385 385.893C689.769 386.706 690.419 387.948 690.663 388.763C694.872 389.599 698.483 388.921 702.503 387.773C705.691 386.752 711.97 384.06 714.682 385.419C715.527 387.259 715.379 386.314 715.078 388.367C713.016 391.512 710.183 391.961 709.373 394.196C710.857 396.375 714.623 396.991 717.161 397.422C726.635 394.63 725.053 397.593 728.788 405.33C733.64 415.378 745.559 414.929 754.737 416.063C771.871 418.181 782.053 431.498 784.9 447.731C785 448.238 784.998 448.464 785.019 448.924L783.911 448.57C783.057 446.078 782.431 444.445 781.363 442.019C778.885 441.051 773.75 435.519 771.095 433.597C749.246 417.778 720.727 416.478 694.81 413.619C684.667 412.186 672.473 413.535 663.965 406.919C651.03 396.862 639.006 386.752 623.617 380.569C620.508 379.319 616.924 378.226 614.007 376.622Z"/><path fill="#F16466" d="M722.058 399.319C716.03 399.871 704.87 402.857 706.024 392.326C707.149 390.584 706.414 391.214 708.316 390.374L708.888 390.713C707.206 396.717 712.372 398.392 717.161 397.422C726.635 394.63 725.053 397.593 728.788 405.33C733.64 415.378 745.559 414.929 754.737 416.063C771.871 418.181 782.053 431.498 784.9 447.731C785 448.238 784.998 448.464 785.019 448.924L783.911 448.57C783.057 446.078 782.431 444.445 781.363 442.019C775.094 427.183 764.314 420.436 748.633 418.05C743.672 417.295 737.086 416.824 732.63 414.705C725.814 411.464 724.28 405.78 722.058 399.319Z"/><path fill="#F16466" d="M643.021 365.457C656.755 370.091 650.969 388.35 677.121 381.162L677.759 381.674C673.633 384.962 667.37 386.302 662.207 385.553C654.047 384.367 650.352 376.999 645.578 371.326C644.032 369.488 641.169 368.446 639.586 366.273L640.05 365.671L643.021 365.457Z"/><path fill="#F16466" d="M702.503 387.773L704.696 387.922L704.964 388.557C701.531 391.472 684.117 397.098 687.237 385.136L687.756 384.807C688.901 386.803 688.64 387.502 690.663 388.763C694.872 389.599 698.483 388.921 702.503 387.773Z"/><path fill="#9F0402" d="M610.376 379.329C611.586 378.291 612.71 377.531 614.007 376.622C616.924 378.226 620.508 379.319 623.617 380.569C639.006 386.752 651.03 396.862 663.965 406.919C672.473 413.535 684.667 412.186 694.81 413.619C720.727 416.478 749.246 417.778 771.095 433.597C773.75 435.519 778.885 441.051 781.363 442.019C782.431 444.445 783.057 446.078 783.911 448.57L785.019 448.924C785.204 450.466 785.026 450.719 784.641 452.208C780.362 445.331 771.391 436.703 763.87 433.402C742.664 424.097 716.219 421.415 693.354 419.667C688.146 419.268 671.347 419.225 667.821 417.372C659.874 413.198 650.161 403.923 641.921 398.24C630.725 390.52 622.358 385.634 610.376 379.329Z"/><path fill="#1D1D1C" d="M574.944 559.758C580.737 559.229 587.867 559.78 593.828 559.68C613.903 559.342 634.084 559.848 654.042 557.272C667.442 555.542 675.364 544.2 687.546 539.781C694.567 537.909 702.029 537.463 709.342 537.156C735.728 536.047 762.035 533.104 788.323 531.472C790.225 531.354 791.795 534.034 792.77 535.484L795.565 531.841C795.387 537.293 794.872 545.329 793.302 550.586C791.92 549.88 792.028 549.915 791.319 548.516C789.379 545.714 789.675 536.986 784.945 536.781C778.756 536.592 772.468 537.515 766.297 538.135C745.864 539.987 724.95 541.875 704.487 543.115C685.189 544.284 684.272 560.621 667.567 565.038C664.046 565.97 653.943 565.922 649.874 565.905C624.904 565.798 599.628 563.573 574.944 559.758Z"/><path fill="#FBE238" d="M792.77 535.484L795.565 531.841C795.387 537.293 794.872 545.329 793.302 550.586C791.92 549.88 792.028 549.915 791.319 548.516C793.302 543.856 793.144 540.305 792.77 535.484Z"/><path fill="#1D1D1C" d="M395.936 415.425C407.742 416.509 420.034 416.477 431.972 417.355C436.111 425.853 445.582 426.171 453.982 427.645C444.912 428.596 430.209 426.937 421.057 426.216C415.201 425.754 406.684 425.293 400.967 424.601C399.433 423.413 396.829 417.418 395.936 415.425Z"/><path fill="#1E1907" d="M381.704 384.071C385.502 382.788 388.292 381.788 392.21 381.024C390.417 386.484 388.279 389.766 386.372 394.587C384.977 391.946 382.976 386.962 381.704 384.071Z"/><path fill="#1D1D1C" d="M518.855 428.452C521.931 427.901 526.18 427.706 529.386 427.543C557.672 426.106 584.763 427.133 613.074 428.646C650.945 430.67 691.315 433.463 727.462 445.824C736.315 449.251 746.883 454.811 753.385 461.48C772.147 480.728 775.097 488.465 743.662 487.95C742.058 487.924 742.301 487.647 741.445 486.503C734.972 473.153 721.871 460.43 708.926 453.479C717.788 461.39 733.662 477.043 737.539 488.21C731.601 489.276 710.592 489.143 704.918 486.545C701.289 484.884 696.107 478.78 692.825 475.68C678.052 461.728 665.077 451.802 645.298 445.62C629.727 440.753 617.322 439.221 601.379 436.741C573.751 432.444 546.457 431.23 518.855 428.452Z"/><path fill="#1D1D1C" d="M560.038 448.546C581.591 447.931 609.833 457.367 631.086 462.308C642.733 465.016 654.088 475.552 660.864 485.18C654.261 484.266 648.32 483.396 641.506 482.532C624.877 480.424 600.86 480.676 586.101 473.949C577.872 470.198 562.801 456.91 560.038 448.546Z"/><path fill="#FBE238" d="M598.977 457.099C606.351 458.82 617.879 460.299 622.341 467.013C624.874 470.824 622.078 474.622 618.079 475.497C609.546 477.149 599.819 474.322 592.529 470.079C598.989 471.295 608.997 473.618 615.244 472.147C616.032 471.509 616.637 471.188 616.549 470.006C616.027 462.974 602.652 461.116 597.64 460.446C598.223 459.491 598.59 458.191 598.977 457.099Z"/><path fill="#FCDA06" d="M570.613 452.804C581.722 454.182 587.686 454.79 598.977 457.099C598.59 458.191 598.223 459.491 597.64 460.446C597.293 460.892 597.105 461.465 596.863 462.014C597.056 463.546 597.298 464.341 596.792 465.804C590.236 471.453 584.244 460.624 579.613 457.513C577.213 455.902 573.289 454.158 570.613 452.804Z"/><path fill="#1D1D1C" d="M462.026 376.811L462.579 376.851C470.554 377.372 479.183 376.434 487.039 377.92C506.254 381.556 528.314 401.243 541.028 415.521C542.782 417.511 544.511 419.524 546.213 421.559C539.668 421.751 519.586 422.307 513.755 421.595C511.567 422.018 508.86 421.786 506.584 421.711C496.629 412.218 488.36 400.676 477.288 391.729C475.265 390.094 460.718 377.856 460.301 377.215L462.026 376.811Z"/><path fill="#1D1D1C" d="M506.584 421.711C496.629 412.218 488.36 400.676 477.288 391.729C475.265 390.094 460.718 377.856 460.301 377.215L462.026 376.811C462.964 377.307 463.908 377.794 464.857 378.27C480.232 387.441 489.192 395.648 501.64 408.336C503.812 410.549 512.395 419.414 514.179 420.84L513.755 421.595C511.567 422.018 508.86 421.786 506.584 421.711Z"/><defs><linearGradient id="gradient_0" gradientUnits="userSpaceOnUse" x1="493.05225" y1="396.62244" x2="489.20523" y2="400.58301"><stop offset="0" stop-color="#FFE848"/><stop offset="1" stop-color="#E4D37F"/></linearGradient></defs><path fill="url(#gradient_0)" d="M464.857 378.27C476.067 378.242 509.833 409.084 514.311 419.762L514.179 420.84C512.395 419.414 503.812 410.549 501.64 408.336C489.192 395.648 480.232 387.441 464.857 378.27Z"/><defs><linearGradient id="gradient_1" gradientUnits="userSpaceOnUse" x1="546.50116" y1="372.20944" x2="542.09149" y2="413.71301"><stop offset="0" stop-color="#201F09"/><stop offset="1" stop-color="#1E1F23"/></linearGradient></defs><path fill="url(#gradient_1)" d="M462.363 366.228C495.221 365.059 544.744 369.159 575.481 381.173C597.548 389.797 629.034 410.801 647.755 425.648C643.204 425.177 629.59 424.803 626.74 422.798C610.143 409.957 582.347 386.893 562.894 381.873C540.582 376.115 508.229 373 485.347 371.797C479.059 371.456 472.762 371.297 466.465 371.319C452.422 371.405 451.156 371.445 437.659 367.706C445.882 367.035 454.119 366.542 462.363 366.228Z"/><path fill="#1D1D1C" d="M577.846 479.969C583.166 482.827 588.236 489.693 596.008 492.424C607.206 496.359 625.779 496.606 637.246 497.544C665.235 499.832 768.605 502.413 788.995 493.656L789.686 493.356L790.524 493.718C791.124 495.423 790.986 495.829 790.836 497.593C789.066 498.281 787.305 498.829 785.454 499.245C752.414 506.668 631.888 508.05 599.98 501.018C596.449 500.24 593.257 499.133 590.199 497.141C584.2 493.235 579.356 487.018 577.846 479.969Z"/><path fill="#1D1D1C" d="M406.333 379.722C422.391 378.395 434.992 390.09 444.311 401.718C438.104 405.173 436.247 405.955 432.973 412.24L432.542 412.657C428.743 413.18 416.896 408.988 413.096 407.432C404.655 403.978 400.954 398.902 397.719 390.616C396.737 388.101 394.859 383.326 395.92 380.932C398.591 380.058 403.36 379.926 406.333 379.722Z"/><path fill="#1D1D1C" d="M782.098 514.694C783.15 514.481 782.828 514.546 783.944 514.696C784.658 516.51 783.76 523.499 781.929 525.154C780.157 526.94 777.622 527.505 775.159 527.714C752.78 529.616 730.367 531.95 707.875 532.099L706.629 531.792C705.031 529.825 705.428 522.812 705.425 519.959C728.653 520.529 759.23 517.861 782.098 514.694Z"/><path fill="#1D1D1C" d="M588.795 509.39C590.786 510.357 592.831 511.765 594.731 512.455C607.053 516.933 620.692 517.2 633.258 520.308C638.559 521.619 645.11 526.514 650.152 528.679C654.531 530.56 659.188 531.535 663.801 533.538C657.043 533.709 650.642 533.529 643.972 532.899C617.913 530.44 606.01 529.524 588.795 509.39Z"/><path fill="#1D1D1C" d="M750.866 570.205L752.188 570.125L752.176 570.855C746.682 573.753 728.171 575.162 721.399 575.801C662.469 581.362 606.74 580.941 547.804 577.873C546.249 577.659 546.177 577.772 544.888 576.947C546.806 575.85 562.511 576.733 566.226 576.872C628.186 579.189 689.325 578.369 750.866 570.205Z"/><path fill="#1D1D1C" d="M429.86 441.684C441.298 440.561 473.766 444.999 485.12 447.701C475.118 453.421 470.554 455.182 464.249 465.054C460.769 470.756 458.304 475.207 455.602 481.29C463.074 444.317 467.673 452.165 429.86 441.684Z"/><path fill="#1D1D1C" d="M464.659 408.199C468.618 407.808 471.966 407.158 473.394 411.867C472.688 419.57 453.943 418.415 448.184 418.471C445.857 418.338 441.151 418.648 440.225 416.361C442.931 411.908 459.367 408.695 464.659 408.199Z"/><path fill="#1E1907" d="M514.211 444.674C528.094 444.757 535.476 452.501 542.618 463.199C532.715 453.94 522.135 446.595 507.804 450.183C496.302 453.087 490.492 461.384 482.899 469.343C491.357 455.998 497.34 446.567 514.211 444.674Z"/><path fill="#1D1D1C" d="M763.549 452.514C766.239 454.901 768.304 457.119 770.772 459.743C773.409 462.668 777.052 466.523 778.952 469.856C782.704 475.031 782.12 478.733 777.48 482.678C774.704 477.013 768.725 469.314 765.043 463.532C765.088 458.704 764.84 456.934 763.549 452.514Z"/><path fill="#1E1907" d="M770.772 459.743C773.409 462.668 777.052 466.523 778.952 469.856L778.34 470.965C775.34 470.06 770.076 462.801 770.772 459.743Z"/><path fill="#1D1D1C" d="M474.461 409.727C479.988 414.093 488.057 424.597 491.214 430.857L490.761 431.454C484.784 428.989 478.377 426.446 472.615 423.601C474.022 418.263 474.465 415.207 474.461 409.727Z"/><path fill="#E51912" d="M329.155 156.671C340.917 148.732 364.616 148.527 377.847 151.611C415.933 160.491 452.335 185.539 482.606 209.49C492.196 217.078 505.589 229.508 514.768 235.486C515.729 228.871 515.883 212.786 516.793 208.887C524.526 211.205 554.563 279.318 557.678 289.334C550.555 286.853 544.357 282.647 537.673 279.355C529.052 275.11 519.985 270.895 511.184 267.013C502.502 263.185 493 260.011 484.142 256.502C480.776 255.169 476.838 254.402 473.917 252.662L473.974 252.093C480.067 250.244 493.164 246.611 499.314 245.474C486.767 238.072 474.704 229.262 462.442 221.978C434.929 205.637 387.264 184.528 366.148 221.515C349.292 251.04 356.076 296.495 363.662 328.452C365.556 336.197 374.115 364.44 377.493 370.895C377.55 373.164 380.74 381.395 381.704 384.071C382.976 386.962 384.977 391.946 386.372 394.587C387.329 399.061 393.695 411.045 395.936 415.425C396.829 417.418 399.433 423.413 400.967 424.601C402.082 429.06 409.372 441.366 411.833 445.608C430.942 479.064 452.654 510.965 476.768 541.014C477.093 541.014 477.418 541.014 477.743 541.015C479.921 548.068 499.921 568.883 505.597 575.778C507.647 578.268 512.64 582.715 514.711 585.137C516.444 585.079 518.227 584.907 519.961 584.771C519.965 586.764 519.985 588.691 519.881 590.688L523.403 593.438C524.991 593.47 530.373 593.487 531.632 593.728C529.551 593.737 527.372 593.472 525.652 594.509L525.246 595.437L526.219 597.531C524.1 599.61 489.021 599.31 482.299 599.75C477.091 600.261 462.265 600.041 456.827 599.984C454.45 595.782 451.9 590.943 448.539 587.504C436.243 588.316 412.851 586.02 399.985 585.206L296.494 578.159C288.304 577.634 280.104 577.265 271.9 577.053C255.158 576.581 240.971 576.654 231.582 559.998C214.774 530.181 217.274 491.254 223.257 459.043C231.108 416.775 259.711 423.794 293.208 414.557C298.945 412.901 317.316 399.215 324.385 394.81C326 393.419 327.423 392.244 329.116 390.949C327.754 387.413 326.554 383.977 324.639 380.697C316.733 385.857 297.04 401.764 289.769 403.852C270.858 409.28 227.831 394.987 218.84 423.648C218.266 427.063 217.918 430.872 217.532 434.342C213.304 426.946 209.253 415.889 213.198 407.666C219.612 390.907 235.076 389.501 250.554 389.698C262.881 381.084 250.107 376.715 249.772 371.406L251.357 370.361C259.331 369.146 264.169 375.61 270.432 379.717C272.919 380.538 273.964 381.218 276.209 379.69C278.477 374.765 270.22 368.003 274.365 362.085C284.061 357.732 285.271 368.427 296.634 367.865L298.008 367.527C301.619 364.185 293.992 358.009 301.499 353.785C306.784 352.044 310.633 352.478 315.57 355.151C313.639 344.032 306.731 330.558 304.132 318.987C300.177 301.381 295.799 283.949 294.624 265.85C294.107 257.887 294.434 249.731 294.166 241.75C293.246 223.363 294.712 205.988 301.514 188.69C305.453 178.671 319.003 160.75 329.155 156.671Z"/><path fill="#FCDA06" d="M324.385 394.81C326.229 393.934 328.063 393.038 329.888 392.123C331.987 396.427 338.722 410.366 339.506 414.112C340.265 415.621 342.657 420.176 342.966 421.529C345.191 425.49 346.637 428.486 348.519 432.637C351.133 436.819 351.908 441.057 353.848 445.496C354.781 447.632 356.956 450.018 358.331 452L357.922 452.807C363.184 459.979 369.845 472.354 374.386 480.406C375.794 482.468 376.801 484.414 377.967 486.619C383.061 495.684 392.809 510.47 398.788 519.062C401.689 523.029 404.786 527.804 406.99 532.195C412.404 538.97 417.236 546.116 422.364 553.101C427.283 559.8 432.323 566.287 437.055 573.134L438.649 575.075C441.85 579.293 445.148 583.438 448.539 587.504C436.243 588.316 412.851 586.02 399.985 585.206L296.494 578.159C288.304 577.634 280.104 577.265 271.9 577.053C255.158 576.581 240.971 576.654 231.582 559.998C214.774 530.181 217.274 491.254 223.257 459.043C231.108 416.775 259.711 423.794 293.208 414.557C298.945 412.901 317.316 399.215 324.385 394.81Z"/><path fill="#1D1D1C" d="M348.519 432.637C351.133 436.819 351.908 441.057 353.848 445.496C354.781 447.632 356.956 450.018 358.331 452L357.922 452.807C363.184 459.979 369.845 472.354 374.386 480.406C375.794 482.468 376.801 484.414 377.967 486.619C383.061 495.684 392.809 510.47 398.788 519.062C401.689 523.029 404.786 527.804 406.99 532.195C392.66 530.874 376.977 529.152 362.713 528.453C358.581 536.59 356.678 542.108 353.839 550.836C354.542 542.095 354.896 536.272 354.71 527.608C340.788 526.43 309.769 522.787 297.303 524.177C319.765 512.684 332.902 515.708 357.041 516.03C357.085 506.973 355.437 495.213 354.734 485.751C337.895 485.277 319.856 483.609 303.228 486.014C290.827 487.807 296.762 500.541 298.854 508.766C294.151 512.145 291.923 513.064 286.445 514.989C283.843 508.621 282.06 500.065 279.917 493.33C278.118 487.673 276.243 483.09 273.985 477.612C280.567 476.782 290.044 476.861 296.73 476.819C315.905 476.699 335.023 478.312 354.153 479.096C353.859 470.021 353.699 461.972 354.4 452.904C341.066 452.685 296.765 450.579 287.102 455.976C285.921 456.636 284.983 457.433 284.711 458.817C283.959 462.642 288.118 469.045 290.361 472.041C284.248 471.933 277.922 472.25 271.798 472.459C266.005 464.964 262.226 455.692 253.489 450.544C239.202 442.124 230.059 458.582 224.101 468.467C227.115 457.623 232.109 445.834 244.075 442.673C252.202 440.527 258.12 443.906 264.865 447.771C270.647 447.119 277.877 445.173 283.745 444.97C303.351 444.291 335.074 445.219 353.58 450.134C349.58 446.177 347.278 444.008 344.474 439.163L348.519 432.637Z"/><path fill="#FCDA06" d="M358.1 485.99L377.967 486.619C383.061 495.684 392.809 510.47 398.788 519.062L365.25 516.782C361.264 506.768 359.259 496.65 358.1 485.99Z"/><path fill="#FCDA06" d="M357.922 452.807C363.184 459.979 369.845 472.354 374.386 480.406C370.344 479.843 362.213 479.593 357.842 479.344C356.889 472.254 356.74 459.549 357.922 452.807Z"/><path fill="#FCDA06" d="M272.48 455.883C276.715 458.034 281.04 466.983 282.636 471.304C277.659 470.373 273.576 460.515 272.48 455.883Z"/><path fill="#1D1D1C" d="M438.649 575.075C401.923 573.474 365.21 571.596 328.513 569.441C310.309 568.427 283.6 567.748 266.089 565.601L266.841 565.52L266.997 565.28C274.998 564.57 284.772 565.347 292.952 565.742L331.541 567.69C366.142 569.5 402.677 570.707 437.055 573.134L438.649 575.075Z"/><path fill="#1D1D1C" d="M339.506 414.112C340.265 415.621 342.657 420.176 342.966 421.529C336.66 421.572 311.718 421.442 308.259 417.315C310.635 413.952 324.974 416.985 328.706 416.52C331.94 416.116 336.312 414.907 339.506 414.112Z"/><path fill="#1D1D1C" d="M243.648 454.113C276.1 456.382 281.113 558.193 251.21 566.477C220.373 567.9 212.518 461.481 243.648 454.113Z"/><path fill="#1D1D1C" d="M243.839 467.196C247.041 468.351 247.665 468.523 250.562 470.504C253.915 474.016 255.798 476.704 257.302 481.502C259.721 486.14 261.301 493.277 262.295 498.443C263.299 504.83 264.335 514.925 263.594 521.372C263.48 524.977 263.352 528.538 262.548 532.074C260.943 542.586 252.64 564.381 239.309 551.695C234.008 546.338 232.267 540.465 230.238 533.46L228.736 526.567C227.477 519.344 227.035 515.332 226.96 507.995C226.913 504.24 227.204 501.439 227.571 497.686C228.288 490.541 229.104 487.808 231.235 480.81C231.685 479.791 232.143 478.776 232.61 477.766C235.595 471.331 237.423 469.562 243.839 467.196Z"/><path fill="#FCDA06" d="M243.839 467.196C247.041 468.351 247.665 468.523 250.562 470.504C253.915 474.016 255.798 476.704 257.302 481.502C259.721 486.14 261.301 493.277 262.295 498.443C263.299 504.83 264.335 514.925 263.594 521.372L261.349 522.494C257.889 519.044 255.133 516.271 251.948 512.522C254.491 510.541 258.711 507.949 261.506 506.116C261.246 504.081 261.002 502.044 260.774 500.005C260.404 498.505 259.97 496.114 258.82 495.248C255.721 496.045 253.532 499.295 250.244 500.245L249.48 499.56C248.195 494.964 251.807 484.5 253.938 480.564C253.162 477.316 250.996 475.549 248.367 473.803C246.169 477.837 244.681 490.229 243.186 495.85C241.43 487.652 240.624 482.082 239.527 473.683C237.573 475.879 234.755 478.81 233.814 481.555C235.848 489.19 238.256 496.406 237.974 504.284C234.765 502.377 231.605 500.389 228.499 498.32L227.571 497.686C228.288 490.541 229.104 487.808 231.235 480.81C231.685 479.791 232.143 478.776 232.61 477.766C235.595 471.331 237.423 469.562 243.839 467.196Z"/><path fill="#FCDA06" d="M249.481 522.239C253.325 524.603 257.801 529.83 261.493 530.628L262.548 532.074C260.943 542.586 252.64 564.381 239.309 551.695C239.828 551.169 240.637 550.611 241.229 550.163C243.779 547.197 244.028 539.906 244.477 535.732L247.157 536.082C248.35 541.06 249.683 545.734 251.09 550.644C253.025 548.275 253.851 546.922 255.405 544.364C253.585 537.01 251.335 529.682 249.481 522.239Z"/><path fill="#FBE238" d="M240.986 524.497C240.179 530.28 239.241 536.345 238.748 542.168C238.45 545.677 238.512 547.718 241.229 550.163C240.637 550.611 239.828 551.169 239.309 551.695C234.008 546.338 232.267 540.465 230.238 533.46L232.484 532.553C235.545 530.592 237.956 527.087 240.986 524.497Z"/><path fill="#FCDA06" d="M226.96 507.995L228.339 507.515C230.52 510.221 234.458 512.287 237.316 514.468C235.241 517.491 231.818 522 230.426 525.169C229.337 525.63 229.413 525.591 228.736 526.567C227.477 519.344 227.035 515.332 226.96 507.995Z"/><path fill="#FBE238" d="M261.349 522.494L263.594 521.372C263.48 524.977 263.352 528.538 262.548 532.074L261.493 530.628C261.597 527.58 261.518 525.517 261.349 522.494Z"/><path fill="#FBE238" d="M227.571 497.686L228.499 498.32L228.339 507.515L226.96 507.995C226.913 504.24 227.204 501.439 227.571 497.686Z"/><path fill="#FBE238" d="M228.736 526.567C229.413 525.591 229.337 525.63 230.426 525.169C230.567 528.626 230.462 529.84 232.484 532.553L230.238 533.46L228.736 526.567Z"/><path fill="#FBE238" d="M244.477 535.732C244.693 532.91 244.861 530.529 245.327 527.718L247.157 536.082L244.477 535.732Z"/><path fill="#1D1D1C" d="M287.469 431.711C290.22 431.424 295.086 430.886 297.188 432.529L296.833 433.408C293.255 435.869 289.941 435.907 285.626 436.486C284.52 436.573 283.412 436.634 282.303 436.67C280.065 436.729 275.913 436.641 274.248 435.068L274.821 434.203C279.068 432.057 282.73 432.115 287.469 431.711Z"/><path fill="#1D1D1C" d="M246.169 432.187L248.246 432.029L248.479 432.621C246.197 435.008 242.229 436.545 239.171 437.668C238.245 437.84 237.651 437.809 236.707 437.84L235.933 437.078C236.774 433.011 242.915 432.557 246.169 432.187Z"/><path fill="#C8A306" d="M289.618 424.774C292.741 424.656 299.5 424.417 302.449 424.979C297.361 425.702 292.032 425.394 286.618 425.951C283.051 426.202 278.691 426.079 275.048 426.066L274.948 425.829C280.96 425.005 283.831 425.113 289.618 424.774Z"/><path fill="#9F0402" d="M329.155 156.671C326.27 159.386 319.47 164.814 317.605 167.611C308.483 181.3 304.835 201.951 304.506 217.818C303.797 251.96 311.211 287.371 320.996 319.834C347.78 408.698 394.811 491.4 451.787 564.301C460.109 574.949 471.37 589.623 480.383 599.173C480.965 599.354 481.72 599.615 482.299 599.75C477.091 600.261 462.265 600.041 456.827 599.984C454.45 595.782 451.9 590.943 448.539 587.504C445.148 583.438 441.85 579.293 438.649 575.075L437.055 573.134C432.323 566.287 427.283 559.8 422.364 553.101C417.236 546.116 412.404 538.97 406.99 532.195C404.786 527.804 401.689 523.029 398.788 519.062C392.809 510.47 383.061 495.684 377.967 486.619C376.801 484.414 375.794 482.468 374.386 480.406C369.845 472.354 363.184 459.979 357.922 452.807L358.331 452C356.956 450.018 354.781 447.632 353.848 445.496C351.908 441.057 351.133 436.819 348.519 432.637C346.637 428.486 345.191 425.49 342.966 421.529C342.657 420.176 340.265 415.621 339.506 414.112C338.722 410.366 331.987 396.427 329.888 392.123C328.063 393.038 326.229 393.934 324.385 394.81C326 393.419 327.423 392.244 329.116 390.949C327.754 387.413 326.554 383.977 324.639 380.697C316.733 385.857 297.04 401.764 289.769 403.852C270.858 409.28 227.831 394.987 218.84 423.648C218.266 427.063 217.918 430.872 217.532 434.342C213.304 426.946 209.253 415.889 213.198 407.666C219.612 390.907 235.076 389.501 250.554 389.698C262.881 381.084 250.107 376.715 249.772 371.406L251.357 370.361C259.331 369.146 264.169 375.61 270.432 379.717C272.919 380.538 273.964 381.218 276.209 379.69C278.477 374.765 270.22 368.003 274.365 362.085C284.061 357.732 285.271 368.427 296.634 367.865L298.008 367.527C301.619 364.185 293.992 358.009 301.499 353.785C306.784 352.044 310.633 352.478 315.57 355.151C313.639 344.032 306.731 330.558 304.132 318.987C300.177 301.381 295.799 283.949 294.624 265.85C294.107 257.887 294.434 249.731 294.166 241.75C293.246 223.363 294.712 205.988 301.514 188.69C305.453 178.671 319.003 160.75 329.155 156.671Z"/><path fill="#E51912" d="M301.499 353.785C306.784 352.044 310.633 352.478 315.57 355.151L316.804 358.412C317.969 362.235 320.101 367.805 321.908 371.359C317.124 374.209 313.512 376.49 309.028 379.716C302.378 384.5 293.363 392.239 285.724 394.877C266.638 401.467 224.787 389.155 218.511 416.227C217.747 419.524 217.275 420.861 218.84 423.648C218.266 427.063 217.918 430.872 217.532 434.342C213.304 426.946 209.253 415.889 213.198 407.666C219.612 390.907 235.076 389.501 250.554 389.698C262.881 381.084 250.107 376.715 249.772 371.406L251.357 370.361C259.331 369.146 264.169 375.61 270.432 379.717C272.919 380.538 273.964 381.218 276.209 379.69C278.477 374.765 270.22 368.003 274.365 362.085C284.061 357.732 285.271 368.427 296.634 367.865L298.008 367.527C301.619 364.185 293.992 358.009 301.499 353.785Z"/><path fill="#F16466" d="M251.357 370.361C259.331 369.146 264.169 375.61 270.432 379.717C271.985 381.364 273.916 381.108 276.262 381.574L276.194 382.154C274.917 383.06 273.997 383.458 272.425 383.427C268.216 383.343 253.767 373.037 251.357 370.361Z"/><path fill="#F16466" d="M213.198 407.666C219.612 390.907 235.076 389.501 250.554 389.698C248.524 391.633 241.129 391.978 238.02 392.45C225.19 394.397 220.991 397.952 213.999 408.272L213.198 407.666Z"/><path fill="#F16466" d="M274.365 362.085C284.061 357.732 285.271 368.427 296.634 367.865C297.552 368.129 297.159 367.876 297.786 368.667C292.597 375.555 282.519 365.839 277.241 363.813C275.888 363.294 275.422 363.024 274.365 362.085Z"/><path fill="#F16466" d="M301.499 353.785C306.784 352.044 310.633 352.478 315.57 355.151L316.804 358.412C313.455 357.951 308.308 354.827 304.453 354.88C303.229 354.897 302.436 354.59 301.499 353.785Z"/><path fill="#FBE238" d="M514.711 585.137C516.444 585.079 518.227 584.907 519.961 584.771C519.965 586.764 519.985 588.691 519.881 590.688C517.822 588.658 516.594 587.36 514.711 585.137Z"/><path fill="#FCDA06" d="M384.923 313.789C385.295 303.197 389.189 288.061 396.841 280.259C421.362 255.254 463.017 270.879 489.22 285.009C514.271 298.517 537.767 316.118 559.397 334.54C565.399 339.642 571.433 344.278 577.1 349.636C582.871 354.908 588.296 360.615 593.85 366.129C587.487 363.165 581.385 360.166 574.828 357.642C558.304 351.093 539.142 344.844 521.256 348.692C500.801 325.177 452.954 289.163 418.866 298.742C411.36 300.851 407.71 306.819 404.518 313.486C407.956 313.885 412.366 314.036 415.895 314.247C408.728 324.905 400.579 337.323 394.35 348.54C387.731 337.446 380.084 325.156 374.357 313.736C377.97 313.631 381.31 313.703 384.923 313.789Z"/><path fill="#E51912" d="M809.748 497.806C814.286 486.124 810.174 483.411 811.1 474.573C813.373 472.711 815.061 473.514 817.061 475.147C821.763 482.065 819.732 486.584 817.646 494.051C818.484 497.253 818.484 497.938 821.348 499.824C826.473 503.2 837.617 503.836 835.132 512.026C835.582 513.572 836.549 514.218 837.742 515.341L837.604 516.209L836.173 516.91C833.211 514.352 832.396 508.986 826.725 507.627C825.565 508.62 825.81 510.37 825.639 512.296C826.799 517.142 827.671 519.001 829.844 523.524C829.621 524.303 828.747 527.403 828.851 527.897C830.771 536.975 838.389 541.892 830.091 551.367C828.6 552.869 826.86 553.363 824.791 553.946C822.674 554.05 820.292 553.977 818.152 553.961C803.476 545.899 805.925 525.586 806.317 511.716C806.468 506.375 806.56 502.344 809.748 497.806Z"/><path fill="#9F0402" d="M809.748 497.806L811.138 496.692C811.629 498.72 811.44 499.997 811.556 502.092C810.987 507.504 813.119 509.63 813.524 514.576C813.756 517.41 812.007 522.291 811.633 525.214C810.648 532.896 817.573 550.044 824.431 553.748L824.791 553.946C822.674 554.05 820.292 553.977 818.152 553.961C803.476 545.899 805.925 525.586 806.317 511.716C806.468 506.375 806.56 502.344 809.748 497.806Z"/><path fill="#BF0E0D" d="M809.748 497.806C814.286 486.124 810.174 483.411 811.1 474.573C813.373 472.711 815.061 473.514 817.061 475.147L816.37 476.138C818.064 482.709 817.883 486.949 815.68 493.377C812.951 496.749 812.512 497.843 811.556 502.092C811.44 499.997 811.629 498.72 811.138 496.692L809.748 497.806Z"/><path fill="#F16466" d="M826.971 523.04C824.924 519.129 823.199 515.674 823.616 511.082C823.766 509.434 823.88 506.752 825.037 505.737C825.933 507.151 825.548 510.418 825.639 512.296C826.799 517.142 827.671 519.001 829.844 523.524C829.621 524.303 828.747 527.403 828.851 527.897C830.771 536.975 838.389 541.892 830.091 551.367C828.731 550.132 830.262 547.589 830.773 545.216C831.977 539.622 828.601 535.157 826.023 530.253C826.082 527.681 826.534 525.565 826.971 523.04Z"/><path fill="#F16466" d="M817.061 475.147C821.763 482.065 819.732 486.584 817.646 494.051C815.827 500.666 824.158 502.398 828.801 503.62C821.083 504.245 815.871 503.774 815.686 494.468C815.679 494.104 815.678 493.74 815.68 493.377C817.883 486.949 818.064 482.709 816.37 476.138L817.061 475.147Z"/><path fill="#E51912" d="M680.662 368.309C675.236 371.323 668.454 370.25 664.224 365.707C659.995 361.164 659.408 354.322 662.802 349.126C666.196 343.929 672.696 341.715 678.556 343.761C681.988 344.96 684.791 347.492 686.333 350.784C687.874 354.076 688.022 357.851 686.744 361.254C685.618 364.253 683.462 366.754 680.662 368.309Z"/><path fill="#F16466" d="M678.556 343.761C681.988 344.96 684.791 347.492 686.333 350.784C687.874 354.076 688.022 357.851 686.744 361.254C685.618 364.253 683.462 366.754 680.662 368.309L680.67 367.495C682.397 364.909 684.703 361.261 684.764 358.133C684.92 350.202 679.959 349.138 675.4 344.416L675.722 343.807L678.556 343.761Z"/><path fill="#E51912" d="M285.463 312.891C291.391 312.659 296.381 317.284 296.598 323.212C296.814 329.14 292.175 334.117 286.247 334.318C280.341 334.518 275.387 329.901 275.171 323.995C274.955 318.09 279.558 313.123 285.463 312.891Z"/><path fill="#E51912" d="M766.197 391.001C765.813 391.75 765.335 392.312 764.769 392.943C762.896 395.026 760.222 396.209 757.42 396.195C743.986 396.233 745.304 374.789 758.804 377.331C762.768 378.078 763.559 378.034 765.94 381.337C767.251 385.196 767.662 387.053 766.197 391.001Z"/><path fill="#F16466" d="M766.197 391.001C763.287 386.839 767.974 386.494 760.41 378.955L760.74 378.566C762.868 379.093 764.114 380.126 765.94 381.337C767.251 385.196 767.662 387.053 766.197 391.001Z"/><path fill="#E51912" d="M613.735 339.61C611.079 343.805 605.656 345.271 601.247 342.986C596.839 340.701 594.911 335.424 596.807 330.836C598.704 326.247 603.795 323.871 608.53 325.364C610.764 326.069 612.663 327.57 613.865 329.581C615.718 332.681 615.667 336.559 613.735 339.61Z"/><path fill="#FE9098" d="M613.735 339.61C613.15 332.455 614.957 335.989 610.783 328.536L611.117 327.512L610.905 327.495L610.289 328.165L609.397 327.106L609.664 327.068C611.61 328.033 612.153 328.292 613.865 329.581C615.718 332.681 615.667 336.559 613.735 339.61Z"/><path fill="#E51912" d="M221.379 366.857C225.422 361.276 228.522 359.57 235.041 362.079C238.86 365.148 238.844 366.427 238.495 371.216C237.535 379.562 229.411 379.971 223.309 376.132L221.165 372.091L221.379 366.857Z"/><path fill="#F16466" d="M238.495 371.216C237.861 370.297 234.038 363.605 233.887 362.6L235.041 362.079C238.86 365.148 238.844 366.427 238.495 371.216Z"/><path fill="#E51912" d="M714.419 328.154C717.807 327.297 721.247 329.353 722.096 332.743C722.944 336.133 720.88 339.568 717.488 340.409C714.108 341.246 710.687 339.19 709.841 335.812C708.995 332.434 711.043 329.008 714.419 328.154Z"/><path fill="#FE9098" d="M717.43 328.967C721.261 330.365 721.411 332.185 721.93 335.8C720.157 334.823 718.312 330.854 717.43 328.967Z"/><path fill="#E51912" d="M808.964 449.343C810.195 452.476 810.093 456.07 806.49 457.392C797.784 460.585 794.99 448.513 804.952 447.055C807.127 447.84 807.231 447.866 808.964 449.343Z"/><path fill="#F16466" d="M804.952 447.055C807.127 447.84 807.231 447.866 808.964 449.343C809.029 450.713 809.25 451.372 808.53 452.487C806.776 451.798 806.006 449.999 804.72 448.187L804.952 447.055Z"/><path fill="#E51912" d="M845.034 535.602C840.613 535.247 837.36 531.89 837.226 527.45C838.027 525.762 837.417 526.343 839.062 525.592C841.286 525.668 841.89 526.114 843.987 527.052C847.595 529.857 849.76 532.351 845.034 535.602Z"/><path fill="#F16466" d="M843.987 527.052C847.595 529.857 849.76 532.351 845.034 535.602C844.598 532.144 842.883 529.771 842.797 527.744L843.987 527.052Z"/></svg>